<svg xmlns="http://www.w3.org/2000/svg" version="1.1" xmlns:xlink="http://www.w3.org/1999/xlink" xmlns:svgjs="http://svgjs.dev/svgjs" width="2000" height="1500" viewBox="0 0 2000 1500"><rect width="2000" height="1500" fill="#ffffff"></rect><g transform="matrix(0.4444444444444444,0,0,0.4444444444444444,555.5555555555557,250)"><svg viewBox="0 0 320 360" data-background-color="#ffffff" preserveAspectRatio="xMidYMid meet" height="2250" width="2000" xmlns="http://www.w3.org/2000/svg" xmlns:xlink="http://www.w3.org/1999/xlink"><g id="tight-bounds" transform="matrix(1,0,0,1,0,0)"><svg viewBox="0 0 320 360" height="360" width="320"><g><svg></svg></g><g><svg viewBox="0 0 320 360" height="360" width="320"><g><path xmlns="http://www.w3.org/2000/svg" d="M20.961 227.22l3.726 4.658-1.863-6.056c-0.466-2.795-3.726 0.466-1.863 1.398M25.153 224.425c1.397 2.329 2.795 4.658 2.795 6.987 0 3.261 2.795 4.658 5.123 5.589-3.261-3.726-5.124-13.974-7.918-12.576M204.017 26.929c7.918 0 15.371-0.932 23.756 0.931 20.495 5.124 37.729 15.371 49.374 29.811l32.606 52.169c1.397 13.042 4.192 27.482 3.726 43.319 3.261 0 2.795-4.658 6.521-5.59-3.726 9.316-5.59 20.961-6.521 34.469-2.329-7.453 0-18.632 0.466-24.687-3.261 5.124-5.124 1.397-5.124-0.932 0.466-3.726-1.397-3.261-2.795-4.658-5.124-4.658-8.384-9.782-12.11-17.7 2.329-6.055 2.795-14.905-4.658-19.563-2.329-1.397-5.124-3.726-6.521-7.453-1.863-5.124-5.124-11.179-4.193-19.097 0.466-2.329-6.987 5.124-11.179 1.863-18.166-12.576-36.332-27.016-58.224-39.127-11.645 0-20.029-4.192-24.221-9.316-3.726-4.658-0.932-10.713 4.658-11.179 3.261 0 6.987-0.932 9.782 0.932 0.466-1.863 2.329-4.192 4.657-4.192M157.904 16.215l0.932 0.466c4.658 0.932 6.987 7.453 12.11 5.124 0 3.261 0.466 6.521-0.466 8.85-1.397 3.726-5.59 3.726-8.85 3.726-31.208-1.863-49.374 11.179-68.471 22.358-5.124 3.261-10.713 5.59-14.906 9.782-20.029 18.632-41.921 35.866-47.045 70.335l-4.192 38.195c-0.466 4.192-5.124 8.384-4.192 13.508l3.26 22.824c-3.261-3.261-5.124 0.932-4.192 2.795 0.466 1.397 2.329 6.055 5.124 1.863 3.726 6.987 7.453 20.495 12.576 26.55 15.837 18.632 36.332 35.4 53.101 52.169 4.192-0.932 7.453-0.932 8.384-3.727 1.397 2.795-1.397 5.59-3.726 6.056 7.453 4.658 15.837 8.85 27.016 9.781 14.44 0.932 27.948 3.261 40.524 6.522 6.521-1.863 13.042-2.795 20.029-3.261 2.329 0 3.726-3.726 6.521-4.658l0.466-4.658c2.795 4.192 2.329-1.397 0.466-4.192 3.261 2.795 4.192 5.124 5.589 6.987 0-1.397 3.726-6.521 3.727-0.466l0.931-6.055c1.397-0.932 1.863 5.124 3.261 0.931 1.397-4.192 4.192-0.932 6.987-2.329-0.932 1.863-0.466 5.59 2.794 3.261l3.727-3.261c2.329 5.59 6.055 3.261 7.918 2.329 20.495-13.042 40.99-28.413 60.553-43.784l-0.466 6.055 2.329-7.453c2.329 2.329 4.192 0.466 5.124-0.931 2.795-4.658 6.521-9.316 12.577-13.508-7.453 20.029-16.303 35.866-27.482 48.908l-4.658 5.59c0 3.261-0.932 7.453-4.658 7.918-1.863 0.466-5.59-0.932-8.384 1.863-1.397 1.863 3.261 5.59-0.466 2.795-3.261-2.329-6.521 0-10.248 0.932-2.795 0.932 1.863 3.726 2.795 5.589 0.932 1.863 1.863 3.726 1.398 6.056l-5.124-5.59c-6.055 3.261-9.782 9.316-14.906 13.974-2.329 1.863-1.397 5.124-1.397 7.918-3.261 0-6.987-0.932-8.85 0.932-1.397 1.863-0.932 4.658-0.932 7.453-4.658-0.466-5.124-7.453-9.315-6.056-4.192 0.932-8.85 1.397-12.577 3.727 2.795 5.59-4.658 2.329-3.726 3.26-6.987-4.192-13.042-7.453-20.495-4.658-15.837-5.124-35.4-2.795-49.84-0.931 0-2.329 0.466-4.658-0.466-5.124-0.932 2.329-3.726 1.397-3.26 1.397-8.85-6.055-17.7-9.782-27.016-14.905-8.384 0.932-16.303-3.261-18.632-5.59-6.521-6.055-13.974-2.795-20.029-4.192-13.042-3.261-17.7-16.769-19.098-26.084-0.932-4.658-4.658-6.521-6.055-6.056-6.055-19.563-15.371-37.263-22.824-55.429-1.863-4.658-1.397-9.316-1.397-14.44 2.329 0.932 4.658 0.466 4.192-2.794-2.329-15.371-7.918-27.016-13.974-38.195 3.261-15.837 3.726-34.469 11.179-48.443 6.521-12.576 18.632-19.098 27.016-29.811 2.795-3.726 2.795-8.85 5.59-12.11 9.316-9.316 18.632-19.098 28.879-27.482 4.658-3.726 10.247 0 17.234-1.397 2.329-8.384 11.645-15.837 20.495-13.508 3.726 0.932 11.179-8.85 13.508-9.782 3.726-1.397 1.863 3.726 1.863 6.987 8.85-6.987 20.961-10.713 32.14-14.906" fill="#000104" fill-rule="nonzero" stroke="none" stroke-width="1" stroke-linecap="butt" stroke-linejoin="miter" stroke-miterlimit="10" stroke-dasharray="" stroke-dashoffset="0" font-family="none" font-weight="none" font-size="none" text-anchor="none" style="mix-blend-mode: normal" data-fill-palette-color="tertiary"></path></g><g transform="matrix(1,0,0,1,64.00000000000001,133.44609020787607)"><svg viewBox="0 0 191.99999999999997 93.10781958424786" height="93.10781958424786" width="191.99999999999997"><g><svg viewBox="0 0 191.99999999999997 93.10781958424786" height="93.10781958424786" width="191.99999999999997"><g><svg viewBox="0 0 191.99999999999997 93.10781958424786" height="93.10781958424786" width="191.99999999999997"><g transform="matrix(1,0,0,1,0,55.331699714379546)"><svg viewBox="0 0 191.99999999999997 37.77611986986831" height="37.77611986986831" width="191.99999999999997"><g id="textblocktransform"><svg viewBox="0 0 191.99999999999997 37.77611986986831" height="37.77611986986831" width="191.99999999999997" id="textblock"><g><svg viewBox="0 0 191.99999999999997 21.41595662277304" height="21.41595662277304" width="191.99999999999997"><g transform="matrix(1,0,0,1,0,0)"><svg width="191.99999999999997" viewBox="2.049999952316284 -35.5 322.71002197265625 36" height="21.41595662277304" data-palette-color="#000000"><path d="M2.05 0L2.05-35 10.35-35Q14.6-35 16.55-33.02 18.5-31.05 18.5-26.95L18.5-26.95 18.5-25.55Q18.5-22.85 17.63-21.15 16.75-19.45 14.95-18.7L14.95-18.7 14.95-18.6Q19.05-17.2 19.05-11.3L19.05-11.3 19.05-8.3Q19.05-4.25 16.93-2.13 14.8 0 10.7 0L10.7 0 2.05 0ZM7.55-20.75L9.7-20.75Q11.35-20.75 12.18-21.6 13-22.45 13-24.45L13-24.45 13-26.4Q13-28.3 12.33-29.15 11.65-30 10.2-30L10.2-30 7.55-30 7.55-20.75ZM7.55-5L10.7-5Q12.15-5 12.85-5.78 13.55-6.55 13.55-8.45L13.55-8.45 13.55-11.5Q13.55-13.9 12.73-14.83 11.9-15.75 10-15.75L10-15.75 7.55-15.75 7.55-5ZM30.25 0.5Q26.25 0.5 24.15-1.78 22.05-4.05 22.05-8.3L22.05-8.3 22.05-35 27.55-35 27.55-7.9Q27.55-6.1 28.27-5.3 29-4.5 30.35-4.5L30.35-4.5Q31.7-4.5 32.42-5.3 33.15-6.1 33.15-7.9L33.15-7.9 33.15-35 38.45-35 38.45-8.3Q38.45-4.05 36.35-1.78 34.25 0.5 30.25 0.5L30.25 0.5ZM42.34 0L42.34-35 50.65-35Q54.9-35 56.84-33.02 58.8-31.05 58.8-26.95L58.8-26.95 58.8-25.55Q58.8-22.85 57.92-21.15 57.05-19.45 55.25-18.7L55.25-18.7 55.25-18.6Q59.34-17.2 59.34-11.3L59.34-11.3 59.34-8.3Q59.34-4.25 57.22-2.13 55.09 0 51 0L51 0 42.34 0ZM47.84-20.75L50-20.75Q51.65-20.75 52.47-21.6 53.3-22.45 53.3-24.45L53.3-24.45 53.3-26.4Q53.3-28.3 52.62-29.15 51.95-30 50.5-30L50.5-30 47.84-30 47.84-20.75ZM47.84-5L51-5Q52.45-5 53.15-5.78 53.84-6.55 53.84-8.45L53.84-8.45 53.84-11.5Q53.84-13.9 53.02-14.83 52.2-15.75 50.3-15.75L50.3-15.75 47.84-15.75 47.84-5ZM62.54 0L62.54-35 70.84-35Q75.09-35 77.04-33.02 78.99-31.05 78.99-26.95L78.99-26.95 78.99-25.55Q78.99-22.85 78.12-21.15 77.24-19.45 75.44-18.7L75.44-18.7 75.44-18.6Q79.54-17.2 79.54-11.3L79.54-11.3 79.54-8.3Q79.54-4.25 77.42-2.13 75.29 0 71.19 0L71.19 0 62.54 0ZM68.04-20.75L70.19-20.75Q71.84-20.75 72.67-21.6 73.49-22.45 73.49-24.45L73.49-24.45 73.49-26.4Q73.49-28.3 72.82-29.15 72.14-30 70.69-30L70.69-30 68.04-30 68.04-20.75ZM68.04-5L71.19-5Q72.64-5 73.34-5.78 74.04-6.55 74.04-8.45L74.04-8.45 74.04-11.5Q74.04-13.9 73.22-14.83 72.39-15.75 70.49-15.75L70.49-15.75 68.04-15.75 68.04-5ZM82.74 0L82.74-35 88.24-35 88.24-5 97.29-5 97.29 0 82.74 0ZM99.94 0L99.94-35 114.94-35 114.94-30 105.44-30 105.44-20.75 112.99-20.75 112.99-15.75 105.44-15.75 105.44-5 114.94-5 114.94 0 99.94 0ZM134.03 0.5Q129.98 0.5 127.83-1.8 125.68-4.1 125.68-8.3L125.68-8.3 125.68-26.7Q125.68-30.9 127.83-33.2 129.98-35.5 134.03-35.5L134.03-35.5Q138.08-35.5 140.23-33.2 142.38-30.9 142.38-26.7L142.38-26.7 142.38-8.3Q142.38-4.1 140.23-1.8 138.08 0.5 134.03 0.5L134.03 0.5ZM134.03-4.5Q136.88-4.5 136.88-7.95L136.88-7.95 136.88-27.05Q136.88-30.5 134.03-30.5L134.03-30.5Q131.18-30.5 131.18-27.05L131.18-27.05 131.18-7.95Q131.18-4.5 134.03-4.5L134.03-4.5ZM146.08 0L146.08-35 160.63-35 160.63-30 151.58-30 151.58-20.25 158.68-20.25 158.68-15.25 151.58-15.25 151.58 0 146.08 0ZM175.58 0L175.58-30 169.83-30 169.83-35 186.83-35 186.83-30 181.08-30 181.08 0 175.58 0ZM189.47 0L189.47-35 194.97-35 194.97-20.75 200.87-20.75 200.87-35 206.37-35 206.37 0 200.87 0 200.87-15.75 194.97-15.75 194.97 0 189.47 0ZM218.42 0.5Q214.37 0.5 212.22-1.8 210.07-4.1 210.07-8.3L210.07-8.3 210.07-26.7Q210.07-30.9 212.22-33.2 214.37-35.5 218.42-35.5L218.42-35.5Q222.47-35.5 224.62-33.2 226.77-30.9 226.77-26.7L226.77-26.7 226.77-8.3Q226.77-4.1 224.62-1.8 222.47 0.5 218.42 0.5L218.42 0.5ZM218.42-4.5Q221.27-4.5 221.27-7.95L221.27-7.95 221.27-27.05Q221.27-30.5 218.42-30.5L218.42-30.5Q215.57-30.5 215.57-27.05L215.57-27.05 215.57-7.95Q215.57-4.5 218.42-4.5L218.42-4.5ZM238.47 0.5Q234.47 0.5 232.37-1.78 230.27-4.05 230.27-8.3L230.27-8.3 230.27-35 235.77-35 235.77-7.9Q235.77-6.1 236.49-5.3 237.22-4.5 238.57-4.5L238.57-4.5Q239.92-4.5 240.64-5.3 241.37-6.1 241.37-7.9L241.37-7.9 241.37-35 246.67-35 246.67-8.3Q246.67-4.05 244.57-1.78 242.47 0.5 238.47 0.5L238.47 0.5ZM258.37 0.5Q254.37 0.5 252.27-1.78 250.17-4.05 250.17-8.3L250.17-8.3 250.17-26.7Q250.17-30.95 252.27-33.23 254.37-35.5 258.37-35.5L258.37-35.5Q262.37-35.5 264.47-33.23 266.56-30.95 266.56-26.7L266.56-26.7 266.56-23.7 261.37-23.7 261.37-27.05Q261.37-30.5 258.51-30.5L258.51-30.5Q255.67-30.5 255.67-27.05L255.67-27.05 255.67-7.9Q255.67-4.5 258.51-4.5L258.51-4.5Q261.37-4.5 261.37-7.9L261.37-7.9 261.37-14.75 258.62-14.75 258.62-19.75 266.56-19.75 266.56-8.3Q266.56-4.05 264.47-1.78 262.37 0.5 258.37 0.5L258.37 0.5ZM270.11 0L270.11-35 275.61-35 275.61-20.75 281.51-20.75 281.51-35 287.01-35 287.01 0 281.51 0 281.51-15.75 275.61-15.75 275.61 0 270.11 0ZM295.41 0L295.41-30 289.66-30 289.66-35 306.66-35 306.66-30 300.91-30 300.91 0 295.41 0ZM316.46 0.5Q312.46 0.5 310.41-1.78 308.36-4.05 308.36-8.3L308.36-8.3 308.36-10.3 313.56-10.3 313.56-7.9Q313.56-4.5 316.41-4.5L316.41-4.5Q317.81-4.5 318.53-5.33 319.26-6.15 319.26-8L319.26-8Q319.26-10.2 318.26-11.88 317.26-13.55 314.56-15.9L314.56-15.9Q311.16-18.9 309.81-21.33 308.46-23.75 308.46-26.8L308.46-26.8Q308.46-30.95 310.56-33.23 312.66-35.5 316.66-35.5L316.66-35.5Q320.61-35.5 322.63-33.23 324.66-30.95 324.66-26.7L324.66-26.7 324.66-25.25 319.46-25.25 319.46-27.05Q319.46-28.85 318.76-29.68 318.06-30.5 316.71-30.5L316.71-30.5Q313.96-30.5 313.96-27.15L313.96-27.15Q313.96-25.25 314.98-23.6 316.01-21.95 318.71-19.6L318.71-19.6Q322.16-16.6 323.46-14.15 324.76-11.7 324.76-8.4L324.76-8.4Q324.76-4.1 322.63-1.8 320.51 0.5 316.46 0.5L316.46 0.5Z" opacity="1" transform="matrix(1,0,0,1,0,0)" fill="#000000" class="wordmark-text-0" data-fill-palette-color="primary" id="text-0"></path></svg></g></svg></g><g transform="matrix(1,0,0,1,0,24.541058676994574)"><svg viewBox="0 0 191.99999999999997 13.23506119287374" height="13.23506119287374" width="191.99999999999997"><g transform="matrix(1,0,0,1,0,0)"><svg width="191.99999999999997" viewBox="-0.550000011920929 -40.95000076293945 789.8999633789062 54.45000076293945" height="13.23506119287374" data-palette-color="#01000d"><path d="M2.65-2.6L15.05-37.5 19.15-37.5 31.7-2.6 34.95-2.15 34.95 0 22.75 0 22.75-2.15 27.15-2.6 24.5-10.55 8.9-10.55 6.25-2.65 10.7-2.15 10.7 0-0.55 0-0.55-2.15 2.65-2.6ZM23.6-13.15L17.95-29.8 16.55-34.55 15.2-29.65 9.75-13.15 23.6-13.15ZM72.48 0.55Q69.83 0.55 68.48-0.68 67.13-1.9 67.13-5.05L67.13-5.05 67.13-24.8 63.33-24.8 63.33-26.75Q65.83-27.3 66.23-27.55L66.23-27.55Q66.98-27.95 67.33-29.1L67.33-29.1Q67.63-29.85 68.13-31.8 68.63-33.75 68.88-34.85L68.88-34.85 71.18-34.85 71.18-27.75 80.03-27.75 80.03-24.8 71.18-24.8 71.18-8.6Q71.18-5.7 71.38-4.53 71.58-3.35 72.18-3 72.78-2.65 74.28-2.65L74.28-2.65Q75.73-2.65 77.53-3.05 79.33-3.45 80.23-3.9L80.23-3.9 80.88-2Q79.73-1.1 77.08-0.28 74.43 0.55 72.48 0.55L72.48 0.55ZM94.74-2.5L94.74-37.8 90.29-38.25 90.29-40.1 97.69-40.95 97.79-40.95 98.74-40.3 98.74-28.4 98.64-24.25Q100.24-25.7 103.14-27.05 106.04-28.4 108.84-28.4L108.84-28.4Q111.99-28.4 113.74-27.2 115.49-26 116.19-23.48 116.89-20.95 116.89-16.65L116.89-16.65 116.89-2.55 120.54-2.15 120.54 0 109.34 0 109.34-2.15 112.84-2.55 112.84-16.7Q112.84-19.9 112.41-21.7 111.99-23.5 110.74-24.4 109.49-25.3 107.09-25.3L107.09-25.3Q105.09-25.3 102.79-24.33 100.49-23.35 98.74-22L98.74-22 98.74-2.55 102.44-2.15 102.44 0 91.59 0 91.59-2.15 94.74-2.5ZM132.15-14.05Q132.15-18.4 133.98-21.7 135.8-25 138.78-26.75 141.75-28.5 145-28.5L145-28.5Q151.3-28.5 154.33-24.4 157.35-20.3 157.35-13.9L157.35-13.9Q157.35-9.55 155.53-6.25 153.7-2.95 150.73-1.2 147.75 0.55 144.5 0.55L144.5 0.55Q138.2 0.55 135.18-3.55 132.15-7.65 132.15-14.05L132.15-14.05ZM144.75-2.05Q148.6-2.05 150.7-5 152.8-7.95 152.8-13.6L152.8-13.6Q152.8-19 150.85-22.45 148.9-25.9 144.8-25.9L144.8-25.9Q140.95-25.9 138.83-22.95 136.7-20 136.7-14.35L136.7-14.35Q136.7-8.9 138.68-5.48 140.65-2.05 144.75-2.05L144.75-2.05ZM192.52 0.45Q191.22 0.45 190.62 0 190.02-0.45 190.02-1.65L190.02-1.65 190.02-3.6Q188.17-1.95 185.67-0.7 183.17 0.55 180.67 0.55L180.67 0.55Q176.12 0.55 174.19-2 172.27-4.55 172.27-10.3L172.27-10.3 172.27-25 169.32-25.85 169.32-27.7 175.37-28.35 175.42-28.35 176.32-27.75 176.32-10.9Q176.32-7.75 176.77-5.98 177.22-4.2 178.42-3.35 179.62-2.5 181.92-2.5L181.92-2.5Q184.12-2.5 186.12-3.45 188.12-4.4 189.57-5.7L189.57-5.7 189.57-25 185.77-25.85 185.77-27.7 192.42-28.35 192.47-28.35 193.62-27.75 193.62-2.2 196.72-2.2 196.67-0.3Q196.42-0.25 195.22 0.1 194.02 0.45 192.52 0.45L192.52 0.45ZM220.58 13.5Q208.78 13.5 208.78 6L208.78 6Q208.78 3.75 210.15 1.9 211.53 0.05 213.43-1L213.43-1Q211.08-2.25 211.08-5.15L211.08-5.15Q211.08-7 212.13-8.63 213.18-10.25 214.83-11.1L214.83-11.1Q212.48-12.2 211.15-14.23 209.83-16.25 209.83-18.95L209.83-18.95Q209.83-21.85 211.43-24.03 213.03-26.2 215.6-27.35 218.18-28.5 220.98-28.5L220.98-28.5Q225.63-28.5 228.43-26.45L228.43-26.45Q229.18-27.15 230.75-27.83 232.33-28.5 234.13-28.5L234.13-28.5 235.78-28.5 235.78-24.8 230.08-24.8Q231.53-22.8 231.53-19.95L231.53-19.95Q231.53-17 230.03-14.73 228.53-12.45 226-11.2 223.48-9.95 220.43-9.95L220.43-9.95Q218.38-9.95 216.68-10.4L216.68-10.4Q215.78-9.7 215.25-8.78 214.73-7.85 214.73-6.9L214.73-6.9Q214.73-5 215.95-4.25 217.18-3.5 220.23-3.5L220.23-3.5 226.13-3.5Q230.78-3.5 233-1.7 235.23 0.1 235.23 3.35L235.23 3.35Q235.23 6.05 233.28 8.38 231.33 10.7 227.95 12.1 224.58 13.5 220.58 13.5L220.58 13.5ZM220.93-12.4Q227.28-12.4 227.28-19.4L227.28-19.4Q227.28-26.05 220.68-26.05L220.68-26.05Q214.08-26.05 214.08-19.5L214.08-19.5Q214.08-16.35 215.78-14.38 217.48-12.4 220.93-12.4L220.93-12.4ZM220.83 10.95Q223.53 10.95 225.98 10.18 228.43 9.4 229.93 7.93 231.43 6.45 231.43 4.5L231.43 4.5Q231.43 2.95 230.95 2 230.48 1.05 229.1 0.53 227.73 0 225.13 0L225.13 0 218.93 0Q216.53 0 215.28-0.3L215.28-0.3Q212.83 2.05 212.83 5.2L212.83 5.2Q212.83 8.05 214.63 9.5 216.43 10.95 220.83 10.95L220.83 10.95ZM249.19-2.5L249.19-37.8 244.74-38.25 244.74-40.1 252.14-40.95 252.24-40.95 253.19-40.3 253.19-28.4 253.09-24.25Q254.69-25.7 257.59-27.05 260.49-28.4 263.29-28.4L263.29-28.4Q266.44-28.4 268.19-27.2 269.94-26 270.64-23.48 271.34-20.95 271.34-16.65L271.34-16.65 271.34-2.55 274.99-2.15 274.99 0 263.79 0 263.79-2.15 267.29-2.55 267.29-16.7Q267.29-19.9 266.87-21.7 266.44-23.5 265.19-24.4 263.94-25.3 261.54-25.3L261.54-25.3Q259.54-25.3 257.24-24.33 254.94-23.35 253.19-22L253.19-22 253.19-2.55 256.89-2.15 256.89 0 246.04 0 246.04-2.15 249.19-2.5ZM295.26 0.55Q292.61 0.55 291.26-0.68 289.91-1.9 289.91-5.05L289.91-5.05 289.91-24.8 286.11-24.8 286.11-26.75Q288.61-27.3 289.01-27.55L289.01-27.55Q289.76-27.95 290.11-29.1L290.11-29.1Q290.41-29.85 290.91-31.8 291.41-33.75 291.66-34.85L291.66-34.85 293.96-34.85 293.96-27.75 302.81-27.75 302.81-24.8 293.96-24.8 293.96-8.6Q293.96-5.7 294.16-4.53 294.36-3.35 294.96-3 295.56-2.65 297.06-2.65L297.06-2.65Q298.51-2.65 300.31-3.05 302.11-3.45 303.01-3.9L303.01-3.9 303.66-2Q302.51-1.1 299.86-0.28 297.21 0.55 295.26 0.55L295.26 0.55ZM339.93-33Q337.23-33 337.23-35.85L337.23-35.85Q337.23-37.3 338.08-38.23 338.93-39.15 340.38-39.15L340.38-39.15Q341.88-39.15 342.53-38.33 343.18-37.5 343.18-36.3L343.18-36.3Q343.18-34.75 342.36-33.88 341.53-33 339.98-33L339.98-33 339.93-33ZM334.13-25.15L334.13-27.55 341.08-28.35 341.18-28.35 342.13-27.55 342.13-0.3Q342.13 11.45 334.48 12.15L334.48 12.15Q333.88 12.2 332.86 12.15 331.83 12.1 331.63 11.95L331.63 11.95 331.43 9.9Q331.83 9.95 332.63 9.83 333.43 9.7 334.28 9.4L334.28 9.4Q336.43 8.75 337.28 6 338.13 3.25 338.13-1.25L338.13-1.25 338.08-24.25 334.13-25.15ZM380.19 0.45Q378.89 0.45 378.29 0 377.69-0.45 377.69-1.65L377.69-1.65 377.69-3.6Q375.84-1.95 373.34-0.7 370.84 0.55 368.34 0.55L368.34 0.55Q363.79 0.55 361.87-2 359.94-4.55 359.94-10.3L359.94-10.3 359.94-25 356.99-25.85 356.99-27.7 363.04-28.35 363.09-28.35 363.99-27.75 363.99-10.9Q363.99-7.75 364.44-5.98 364.89-4.2 366.09-3.35 367.29-2.5 369.59-2.5L369.59-2.5Q371.79-2.5 373.79-3.45 375.79-4.4 377.24-5.7L377.24-5.7 377.24-25 373.44-25.85 373.44-27.7 380.09-28.35 380.14-28.35 381.29-27.75 381.29-2.2 384.39-2.2 384.34-0.3Q384.09-0.25 382.89 0.1 381.69 0.45 380.19 0.45L380.19 0.45ZM399.76-7.85L400.51-3.95Q401.06-3.1 402.81-2.45 404.56-1.8 406.56-1.8L406.56-1.8Q412.66-1.8 412.66-6.3L412.66-6.3Q412.66-8.35 410.96-9.63 409.26-10.9 405.16-12.45L405.16-12.45Q401.11-13.9 399.26-15.9 397.41-17.9 397.41-21.25L397.41-21.25Q397.41-23.4 398.73-25 400.06-26.6 402.28-27.48 404.51-28.35 407.11-28.35L407.11-28.35Q409.66-28.35 411.38-27.9 413.11-27.45 414.81-26.8L414.81-26.8 414.81-20.85 412.36-20.85 411.46-24.5Q411.11-25.15 409.68-25.6 408.26-26.05 406.56-26.05L406.56-26.05Q404.16-26.05 402.66-24.98 401.16-23.9 401.16-22.1L401.16-22.1Q401.16-20.5 401.91-19.45 402.66-18.4 403.76-17.78 404.86-17.15 406.81-16.35L406.81-16.35 407.76-15.95Q410.61-14.85 412.36-13.88 414.11-12.9 415.26-11.33 416.41-9.75 416.41-7.4L416.41-7.4Q416.41-3.7 413.58-1.58 410.76 0.55 406.06 0.55L406.06 0.55Q403.91 0.55 401.16-0.15 398.41-0.85 397.06-1.55L397.06-1.55 397.06-7.85 399.76-7.85ZM437.57 0.55Q434.92 0.55 433.57-0.68 432.22-1.9 432.22-5.05L432.22-5.05 432.22-24.8 428.42-24.8 428.42-26.75Q430.92-27.3 431.32-27.55L431.32-27.55Q432.07-27.95 432.42-29.1L432.42-29.1Q432.72-29.85 433.22-31.8 433.72-33.75 433.97-34.85L433.97-34.85 436.27-34.85 436.27-27.75 445.12-27.75 445.12-24.8 436.27-24.8 436.27-8.6Q436.27-5.7 436.47-4.53 436.67-3.35 437.27-3 437.87-2.65 439.37-2.65L439.37-2.65Q440.82-2.65 442.62-3.05 444.42-3.45 445.32-3.9L445.32-3.9 445.97-2Q444.82-1.1 442.17-0.28 439.52 0.55 437.57 0.55L437.57 0.55ZM503.15-14.9Q503.15-10.6 501.4-7.08 499.65-3.55 496.42-1.5 493.2 0.55 489.05 0.55L489.05 0.55Q487.65 0.55 486.1 0.33 484.55 0.1 483.55-0.25L483.55-0.25 483.65 4 483.65 9.4 489.2 9.9 489.2 12.1 475.8 12.1 475.8 9.9 479.65 9.4 479.65-24.45 475.75-25.3 475.75-27.55 482.15-28.35 482.25-28.35 483.15-27.55 483.15-24.5Q484.75-26.15 487.05-27.33 489.35-28.5 492.2-28.5L492.2-28.5Q495.1-28.5 497.6-27.05 500.1-25.6 501.62-22.55 503.15-19.5 503.15-14.9L503.15-14.9ZM490.55-25.45Q488.4-25.45 486.55-24.55 484.7-23.65 483.65-22.55L483.65-22.55 483.65-3.5Q484.05-2.85 485.67-2.33 487.3-1.8 489.25-1.8L489.25-1.8Q493.55-1.8 496.17-4.98 498.8-8.15 498.8-14.35L498.8-14.35Q498.8-19.9 496.47-22.68 494.15-25.45 490.55-25.45L490.55-25.45ZM515.41-14.05Q515.41-18.4 517.24-21.7 519.06-25 522.04-26.75 525.01-28.5 528.26-28.5L528.26-28.5Q534.56-28.5 537.59-24.4 540.61-20.3 540.61-13.9L540.61-13.9Q540.61-9.55 538.79-6.25 536.96-2.95 533.99-1.2 531.01 0.55 527.76 0.55L527.76 0.55Q521.46 0.55 518.44-3.55 515.41-7.65 515.41-14.05L515.41-14.05ZM528.01-2.05Q531.86-2.05 533.96-5 536.06-7.95 536.06-13.6L536.06-13.6Q536.06-19 534.11-22.45 532.16-25.9 528.06-25.9L528.06-25.9Q524.21-25.9 522.09-22.95 519.96-20 519.96-14.35L519.96-14.35Q519.96-8.9 521.94-5.48 523.91-2.05 528.01-2.05L528.01-2.05ZM579.52-14.9Q579.52-10.6 577.77-7.08 576.02-3.55 572.8-1.5 569.57 0.55 565.42 0.55L565.42 0.55Q564.02 0.55 562.47 0.33 560.92 0.1 559.92-0.25L559.92-0.25 560.02 4 560.02 9.4 565.57 9.9 565.57 12.1 552.17 12.1 552.17 9.9 556.02 9.4 556.02-24.45 552.12-25.3 552.12-27.55 558.52-28.35 558.62-28.35 559.52-27.55 559.52-24.5Q561.12-26.15 563.42-27.33 565.72-28.5 568.57-28.5L568.57-28.5Q571.47-28.5 573.97-27.05 576.47-25.6 578-22.55 579.52-19.5 579.52-14.9L579.52-14.9ZM566.92-25.45Q564.77-25.45 562.92-24.55 561.07-23.65 560.02-22.55L560.02-22.55 560.02-3.5Q560.42-2.85 562.05-2.33 563.67-1.8 565.62-1.8L565.62-1.8Q569.92-1.8 572.55-4.98 575.17-8.15 575.17-14.35L575.17-14.35Q575.17-19.9 572.85-22.68 570.52-25.45 566.92-25.45L566.92-25.45ZM618.44-14.9Q618.44-10.6 616.69-7.08 614.94-3.55 611.71-1.5 608.49 0.55 604.34 0.55L604.34 0.55Q602.94 0.55 601.39 0.33 599.84 0.1 598.84-0.25L598.84-0.25 598.94 4 598.94 9.4 604.49 9.9 604.49 12.1 591.09 12.1 591.09 9.9 594.94 9.4 594.94-24.45 591.04-25.3 591.04-27.55 597.44-28.35 597.54-28.35 598.44-27.55 598.44-24.5Q600.04-26.15 602.34-27.33 604.64-28.5 607.49-28.5L607.49-28.5Q610.39-28.5 612.89-27.05 615.39-25.6 616.91-22.55 618.44-19.5 618.44-14.9L618.44-14.9ZM605.84-25.45Q603.69-25.45 601.84-24.55 599.99-23.65 598.94-22.55L598.94-22.55 598.94-3.5Q599.34-2.85 600.96-2.33 602.59-1.8 604.54-1.8L604.54-1.8Q608.84-1.8 611.46-4.98 614.09-8.15 614.09-14.35L614.09-14.35Q614.09-19.9 611.76-22.68 609.44-25.45 605.84-25.45L605.84-25.45ZM642.85 0.55Q637.05 0.55 633.92-3.43 630.8-7.4 630.8-14L630.8-14Q630.8-18.25 632.45-21.55 634.1-24.85 637.02-26.68 639.95-28.5 643.6-28.5L643.6-28.5Q648.05-28.5 650.52-25.95 653-23.4 653.2-18.6L653.2-18.6Q653.2-15.5 652.9-14.2L652.9-14.2 635.1-14.2Q635.1-8.95 637.47-5.63 639.85-2.3 644.15-2.3L644.15-2.3Q646.25-2.3 648.45-3.05 650.65-3.8 651.85-4.85L651.85-4.85 652.65-3Q651.2-1.5 648.42-0.48 645.65 0.55 642.85 0.55L642.85 0.55ZM635.15-16.55L648.7-16.55Q648.85-17.6 648.85-18.75L648.85-18.75Q648.8-22.05 647.27-24 645.75-25.95 642.6-25.95L642.6-25.95Q635.75-25.95 635.15-16.55L635.15-16.55ZM676.41 0.55Q673.46 0.55 670.96-0.98 668.46-2.5 666.96-5.6 665.46-8.7 665.46-13.2L665.46-13.2Q665.46-17.5 667.21-20.98 668.96-24.45 672.19-26.48 675.41-28.5 679.71-28.5L679.71-28.5Q682.46-28.5 685.01-27.9L685.01-27.9 685.01-37.8 679.81-38.3 679.81-40.1 688.01-40.95 688.11-40.95 689.06-40.25 689.06-2.25 692.11-2.25 692.11-0.3Q691.86-0.25 690.41 0.1 688.96 0.45 687.31 0.45L687.31 0.45Q686.16 0.45 685.69 0.05 685.21-0.35 685.21-1.7L685.21-1.7 685.21-3.45Q683.66-1.75 681.44-0.6 679.21 0.55 676.41 0.55L676.41 0.55ZM678.06-2.6Q680.21-2.6 682.14-3.63 684.06-4.65 685.01-5.9L685.01-5.9 685.01-24.3Q684.61-25 682.94-25.5 681.26-26 679.36-26L679.36-26Q675.06-26 672.46-22.93 669.86-19.85 669.86-13.6L669.86-13.6Q669.86-8 672.16-5.3 674.46-2.6 678.06-2.6L678.06-2.6ZM746.49 0.45Q745.19 0.45 744.59 0 743.99-0.45 743.99-1.65L743.99-1.65 743.99-3.6Q742.14-1.95 739.64-0.7 737.14 0.55 734.64 0.55L734.64 0.55Q730.09 0.55 728.16-2 726.24-4.55 726.24-10.3L726.24-10.3 726.24-25 723.29-25.85 723.29-27.7 729.34-28.35 729.39-28.35 730.29-27.75 730.29-10.9Q730.29-7.75 730.74-5.98 731.19-4.2 732.39-3.35 733.59-2.5 735.89-2.5L735.89-2.5Q738.09-2.5 740.09-3.45 742.09-4.4 743.54-5.7L743.54-5.7 743.54-25 739.74-25.85 739.74-27.7 746.39-28.35 746.44-28.35 747.59-27.75 747.59-2.2 750.69-2.2 750.64-0.3Q750.39-0.25 749.19 0.1 747.99 0.45 746.49 0.45L746.49 0.45ZM789.35-14.9Q789.35-10.6 787.6-7.08 785.85-3.55 782.63-1.5 779.4 0.55 775.25 0.55L775.25 0.55Q773.85 0.55 772.3 0.33 770.75 0.1 769.75-0.25L769.75-0.25 769.85 4 769.85 9.4 775.4 9.9 775.4 12.1 762 12.1 762 9.9 765.85 9.4 765.85-24.45 761.95-25.3 761.95-27.55 768.35-28.35 768.45-28.35 769.35-27.55 769.35-24.5Q770.95-26.15 773.25-27.33 775.55-28.5 778.4-28.5L778.4-28.5Q781.3-28.5 783.8-27.05 786.3-25.6 787.83-22.55 789.35-19.5 789.35-14.9L789.35-14.9ZM776.75-25.45Q774.6-25.45 772.75-24.55 770.9-23.65 769.85-22.55L769.85-22.55 769.85-3.5Q770.25-2.85 771.88-2.33 773.5-1.8 775.45-1.8L775.45-1.8Q779.75-1.8 782.38-4.98 785-8.15 785-14.35L785-14.35Q785-19.9 782.68-22.68 780.35-25.45 776.75-25.45L776.75-25.45Z" opacity="1" transform="matrix(1,0,0,1,0,0)" fill="#01000d" class="slogan-text-1" data-fill-palette-color="secondary" id="text-1"></path></svg></g></svg></g></svg></g></svg></g><g transform="matrix(1,0,0,1,69.89734992313825,0)"><svg viewBox="0 0 52.20530015372347 52.20659766015801" height="52.20659766015801" width="52.20530015372347"><g><svg xmlns="http://www.w3.org/2000/svg" xmlns:xlink="http://www.w3.org/1999/xlink" version="1.1" x="0" y="0" viewBox="9.786999702453613 9.78600025177002 80.42599487304688 80.42799377441406" enable-background="new 0 0 100 100" xml:space="preserve" height="52.20659766015801" width="52.20530015372347" class="icon-icon-0" data-fill-palette-color="accent" id="icon-0"><path d="M50 90.214C27.826 90.214 9.787 72.174 9.787 50S27.826 9.786 50 9.786 90.213 27.826 90.213 50 72.174 90.214 50 90.214zM50 12.902c-20.455 0-37.097 16.642-37.097 37.098 0 20.455 16.642 37.098 37.097 37.098S87.097 70.455 87.097 50C87.097 29.544 70.455 12.902 50 12.902zM70.681 28.007L70.681 28.007l1.068-1.135c-3.397-3.196-7.525-5.642-11.938-7.074L59.33 21.28l0 0-1.925 5.926 0 0-0.481 1.482c3.112 1.01 6.025 2.737 8.421 4.992l1.068-1.135 0 0L70.681 28.007zM65.249 29.485c-2.084-1.731-2.212-1.753-4.722-2.746l0.965-2.971c2.94 1.14 3.473 1.401 5.896 3.442L65.249 29.485z" fill="#ff7b00" data-fill-palette-color="accent"></path></svg></g></svg></g><g></g></svg></g></svg></g></svg></g></svg></g><defs></defs></svg><rect width="320" height="360" fill="none" stroke="none" visibility="hidden"></rect></g></svg></g></svg>